<svg xmlns="http://www.w3.org/2000/svg" height="800" width="1200" viewBox="-24.7041 -17.56925 214.1022 105.4155"><path d="M36.938.101c.269-.039.559-.167.826-.058C45.653 5.3 53.443 10.711 61.073 16.332c1.843 1.354 3.687 2.706 5.529 4.062.272.194.514.427.785.626-.802-.121-1.625-.052-2.435-.088-1.747-.138-3.502-.056-5.253-.064-.4.084-.871-.029-1.229.167a5.8686 5.8686 0 01-.258-.177c-1.723-1.299-3.506-2.515-5.262-3.77-5.52-3.854-11.063-7.67-16.658-11.416-.291-.227-.674-.149-1.011-.105-7.939 1.362-15.641 3.938-22.913 7.363-1.818.888-3.64 1.781-5.391 2.795a4.58 4.58 0 00-.12.065c-1.093-.83-2.297-1.503-3.478-2.2.006-.036.018-.107.025-.144 2.025-1.433 4.187-2.666 6.369-3.847 8.503-4.51 17.713-7.658 27.165-9.498z" fill="#B2D78C"/><path d="M12.369 12.928c7.272-3.425 14.974-6.001 22.913-7.363.336-.044.72-.121 1.011.105 5.595 3.746 11.138 7.562 16.658 11.416 1.755 1.255 3.539 2.471 5.262 3.77-.682.158-1.389.048-2.076.174-1.193.04-2.385.122-3.572.241-.997-.016-1.979.18-2.97.25-.443-.299-.848-.649-1.295-.941-1.83-1.151-3.532-2.486-5.332-3.679-.472-.304-.943-.612-1.384-.958-1.123-.861-2.349-1.574-3.508-2.387-1.05-.771-2.123-1.515-3.198-2.25-.285-.185-.59-.429-.951-.369-2.759.369-5.465 1.035-8.155 1.736-3.346 1.003-6.65 2.154-9.868 3.51-.662.323-1.366.553-2.033.866-1 .539-2.091.882-3.089 1.431-1.076-.734-2.09-1.557-3.191-2.258-.225-.138-.425-.313-.611-.5 1.749-1.013 3.571-1.907 5.389-2.794z" fill="#7BC143"/><path d="M25.771 12.673c2.69-.701 5.396-1.367 8.155-1.736.361-.06.666.185.951.369 1.076.736 2.148 1.479 3.198 2.25 1.159.813 2.385 1.526 3.508 2.387.441.345.912.654 1.384.958 1.8 1.192 3.502 2.527 5.332 3.679.447.292.853.643 1.295.941-3.541.401-7.076.938-10.543 1.778-3.857.935-7.654 2.186-11.196 3.985-1.944 1.031-3.838 2.185-5.505 3.626-.112.094-.265.119-.402.165-.413-.999-1.007-1.906-1.598-2.807-.672-1.079-1.521-2.029-2.31-3.022-.64-.696-1.232-1.436-1.926-2.079-1.338-1.395-2.841-2.615-4.29-3.89-.348-.282-.722-.53-1.101-.768l.058-.03c.998-.548 2.089-.892 3.089-1.431.667-.313 1.371-.543 2.033-.866 3.217-1.355 6.522-2.505 9.868-3.509z" fill="#6FB444"/><path d="M6.858 15.789c.03-.018.089-.049.12-.065.186.187.387.362.611.5 1.102.701 2.115 1.524 3.191 2.258l-.058.03c-1.365.689-2.746 1.346-4.087 2.083-.556.311-1.149.567-1.658.957-.301.2-.625.364-.962.496.183-.265.517-.343.783-.498-.058-.276-.326-.41-.53-.57-.765-.58-1.535-1.157-2.314-1.718a.9112.9112 0 01-.293-.315c1.688-1.123 3.406-2.208 5.197-3.158z" fill="#68C296"/><path d="M6.636 20.593c1.341-.737 2.722-1.394 4.087-2.083.378.238.753.485 1.101.768 1.448 1.275 2.951 2.496 4.29 3.89.694.643 1.287 1.383 1.926 2.079.789.993 1.638 1.943 2.31 3.022.591.901 1.186 1.808 1.598 2.807.137-.045.29-.071.402-.165 1.667-1.441 3.562-2.595 5.505-3.626 3.542-1.8 7.338-3.051 11.196-3.985 3.467-.84 7.003-1.377 10.543-1.778 1.696 1.233 3.442 2.404 5.141 3.639.583.438 1.227.796 1.759 1.299-4.46.144-8.911.624-13.302 1.417-2.979.55-5.938 1.242-8.805 2.219-3.674 1.21-7.238 2.845-10.373 5.118-1.703 1.227-3.227 2.684-4.56 4.298-.247-2.011-1.218-3.839-2.267-5.543-1.377-2.125-3.005-4.085-4.793-5.881-.39-.429-.79-.852-1.229-1.232-1.955-1.887-4.017-3.669-6.188-5.304.51-.391 1.103-.648 1.659-.959z" fill="#1CB474"/><path d="M58.212 20.856c.083.062.171.12.258.177 2.014 1.424 3.995 2.896 5.945 4.406.407.344.878.618 1.224 1.028-.496.041-.985-.036-1.477-.07-1.741-.033-3.481-.031-5.223-.017-.708.027-1.423-.034-2.126.085.007.058.022.173.031.233-.122-.076-.239-.153-.351-.239-.533-.503-1.176-.861-1.759-1.299-1.698-1.234-3.444-2.405-5.141-3.639.992-.07 1.973-.265 2.97-.25a53.897 53.897 0 013.572-.241c.689-.126 1.395-.016 2.077-.174z" fill="#68C296"/><path d="M4.016 22.045c.337-.131.662-.296.962-.496 2.17 1.635 4.233 3.417 6.188 5.304.439.38.839.803 1.229 1.232 1.788 1.795 3.416 3.756 4.793 5.881 1.049 1.705 2.02 3.533 2.267 5.543 1.333-1.614 2.857-3.071 4.56-4.298 3.134-2.273 6.698-3.908 10.373-5.118 2.867-.977 5.825-1.669 8.805-2.219 4.391-.793 8.842-1.273 13.302-1.417.112.086.229.163.351.239 2.439 1.678 4.805 3.469 7.186 5.23-3.201.048-6.4.203-9.587.471-.427.135-.89.008-1.315.152-.329.059-.687-.025-1.001.112-.335.041-.686-.011-1.01.11-.296.038-.605-.006-.888.107-.297.034-.605.007-.893.108-.526.043-1.05.115-1.566.213-2.407.331-4.799.775-7.168 1.308-.359.093-.726.159-1.083.263a7.492 7.492 0 00-.455.098c-.149.034-.296.07-.442.112a9.488 9.488 0 00-.789.215c-.146.034-.293.067-.441.106-.408.112-.818.221-1.221.35-.35.091-.689.206-1.041.292l-.072.043c-.539.147-1.072.326-1.6.506-.359.132-.727.248-1.085.383-.301.104-.598.214-.893.33-.19.063-.375.139-.56.219-3.938 1.555-7.766 3.581-10.859 6.5-1.148 1.061-2.142 2.273-3.038 3.547-.021.057-.061.165-.081.222-.023-.286-.042-.575-.114-.854-.249-1.354-.758-2.646-1.303-3.905a7.875 7.875 0 01-.21-.447c-1.417-3.014-3.356-5.756-5.477-8.316-2.939-3.527-6.296-6.694-9.84-9.617.018-.056.054-.166.072-.221 1.331-.73 2.592-1.594 3.944-2.288z" fill="#08723D"/><path d="M51.536 59.07c-.21 1.15-.564 2.125-1.063 2.922-1.317 2.092-3.276 3.139-5.877 3.139-2.38 0-4.245-.848-5.595-2.54-1.229-1.562-1.843-3.548-1.843-5.96 0-2.68.719-4.825 2.158-6.441 1.372-1.55 3.126-2.323 5.263-2.323 1.682 0 3.126.498 4.333 1.493.985.83 1.699 1.826 2.142 2.988.442 1.162.658 2.611.647 4.351H38.486c.011 1.271.171 2.347.481 3.221.42 1.219 1.068 2.182 1.942 2.89 1.007.809 2.235 1.212 3.686 1.212 1.494 0 2.733-.429 3.719-1.287.985-.856 1.632-2.076 1.942-3.659h1.279v-.006zm-1.145-3.487c-.078-1.627-.438-2.955-1.079-3.983-1.085-1.749-2.667-2.623-4.748-2.623-1.461 0-2.729.465-3.802 1.396-1.262 1.085-2.015 2.821-2.258 5.213zm3.66-7.237v3.536c1.051-2.68 3.038-4.019 5.959-4.019 2.048 0 3.602.69 4.666 2.074.409.531.688 1.103.838 1.71.148.607.224 1.468.224 2.573v10.427h-1.295V54.555c0-1.494-.166-2.597-.498-3.305-.343-.696-.888-1.251-1.635-1.659-.747-.409-1.597-.614-2.548-.614-1.55 0-2.834.48-3.852 1.443-.664.62-1.137 1.372-1.418 2.259-.283.886-.424 2.048-.424 3.485v8.482h-1.311v-16.3zm27.352.217V63.03c0 1.963-.31 3.461-.93 4.494-1.106 1.836-3.166 2.753-6.176 2.753-1.97 0-3.509-.413-4.615-1.239-1.107-.826-1.721-2.023-1.843-3.594h1.295c.133.981.437 1.733.913 2.258.896 1.002 2.308 1.505 4.233 1.505 2.047 0 3.53-.485 4.449-1.456.918-.973 1.378-2.534 1.378-4.689v-3.295c-.321.734-.642 1.302-.963 1.694-1.207 1.524-2.922 2.288-5.146 2.288-2.247 0-4.012-.799-5.296-2.399-1.085-1.333-1.627-3.083-1.627-5.247 0-2.411.631-4.332 1.893-5.762 1.317-1.494 3.071-2.24 5.263-2.24 1.395 0 2.604.354 3.627 1.058 1.024.702 1.79 1.712 2.299 3.022v-3.615zm-7.071.605c-2.048 0-3.608.755-4.682 2.258-.853 1.206-1.278 2.705-1.278 4.497 0 2.069.52 3.723 1.561 4.961 1.018 1.193 2.418 1.792 4.2 1.792 1.981 0 3.542-.742 4.682-2.226.853-1.131 1.278-2.635 1.278-4.515 0-2.237-.598-3.962-1.793-5.167-1.02-1.013-2.342-1.544-3.968-1.6zm16.919-1.046v1.295c-.236-.011-.404-.018-.512-.018-2.014 0-3.607.736-4.785 2.208-.553.697-.928 1.452-1.121 2.268-.193.813-.291 2.018-.291 3.609v7.057h-1.396V48.239h1.378v4.282c.541-1.505 1.355-2.614 2.445-3.327 1.089-.715 2.516-1.072 4.282-1.072zm6.059-.133c2.307 0 4.145.901 5.508 2.706 1.16 1.537 1.738 3.547 1.738 6.025 0 2.566-.646 4.608-1.936 6.126-1.354 1.604-3.168 2.406-5.441 2.406-2.361 0-4.221-.862-5.572-2.59-1.213-1.538-1.82-3.542-1.82-6.01 0-2.436.604-4.434 1.803-5.993 1.372-1.78 3.282-2.67 5.72-2.67zm-.034 1.113c-1.896 0-3.424.708-4.582 2.125-1.094 1.339-1.641 3.145-1.641 5.412 0 2.258.529 4.051 1.594 5.379 1.137 1.417 2.658 2.125 4.563 2.125 1.896 0 3.393-.696 4.482-2.092 1.063-1.352 1.596-3.133 1.596-5.347 0-2.158-.494-3.924-1.479-5.296-1.052-1.482-2.562-2.251-4.533-2.306z" fill="#242020"/><path d="M125.284 58.852c-.189 1.417-.637 2.611-1.346 3.586-1.271 1.749-3.139 2.623-5.596 2.623-2.646 0-4.643-1.022-5.992-3.07-1.008-1.506-1.512-3.331-1.512-5.479 0-2.757.721-4.903 2.158-6.441 1.402-1.517 3.229-2.272 5.479-2.272 1.893 0 3.426.483 4.598 1.451 1.174.97 1.859 2.315 2.059 4.043h-1.295c-.221-1.117-.598-1.991-1.129-2.623-.996-1.173-2.398-1.76-4.217-1.76-2.168 0-3.824.818-4.963 2.457-.93 1.352-1.396 3.044-1.396 5.079 0 2.093.51 3.836 1.527 5.229 1.105 1.517 2.65 2.273 4.631 2.273 1.572 0 2.861-.454 3.869-1.361 1.006-.906 1.615-2.151 1.826-3.734zm8.135-11.164c2.357 0 4.234.902 5.629 2.706 1.186 1.538 1.775 3.547 1.775 6.025 0 2.567-.658 4.609-1.975 6.126-1.387 1.604-3.238 2.407-5.564 2.407-2.412 0-4.311-.862-5.693-2.59-1.238-1.538-1.857-3.542-1.857-6.011 0-2.436.613-4.434 1.842-5.993 1.407-1.78 3.355-2.67 5.843-2.67zm-.031 1.112c-1.938 0-3.496.708-4.684 2.125-1.117 1.339-1.676 3.144-1.676 5.411 0 2.259.541 4.052 1.627 5.38 1.162 1.417 2.717 2.125 4.664 2.125 1.938 0 3.465-.697 4.582-2.093 1.086-1.352 1.627-3.132 1.627-5.347 0-2.157-.504-3.924-1.51-5.296-1.072-1.482-2.615-2.25-4.63-2.305zm16.32-.64v1.295c-.223-.012-.383-.018-.482-.018-1.893 0-3.393.736-4.498 2.208-.521.697-.873 1.452-1.055 2.268-.184.813-.273 2.018-.273 3.609v7.057h-1.313V48.276h1.295v4.283c.51-1.505 1.275-2.615 2.299-3.328 1.025-.714 2.365-1.071 4.027-1.071zm1.67.17v3.755c.256-.841.691-1.612 1.314-2.313 1.139-1.272 2.723-1.91 4.748-1.91 2.313 0 4.117.818 5.412 2.46 1.229 1.564 1.842 3.566 1.842 6.005 0 2.3-.57 4.209-1.709 5.73-1.318 1.759-3.154 2.639-5.512 2.639-1.52 0-2.805-.354-3.861-1.068-1.057-.713-1.795-1.722-2.215-3.025v9.354h-1.314V48.33zm6.043.615c-2.08 0-3.656.762-4.729 2.281-.875 1.241-1.313 2.953-1.313 5.132 0 2.181.465 3.868 1.396 5.066 1.141 1.457 2.68 2.187 4.615 2.187 2.049 0 3.617-.825 4.715-2.479.861-1.271 1.295-2.87 1.295-4.791 0-2.146-.492-3.885-1.479-5.213-1.041-1.399-2.541-2.129-4.5-2.183z" fill="#BFBFC0"/></svg>